# xmcd CD database file
#
# Track frame offsets:
#	150
#	10737
#	32407
#	51662
#	73207
#	92992
#	119535
#	137372
#	154645
#	176420
#	197150
#
# Disc length: 2863 seconds
#
# Revision: 0
# Processed by: cddbd v1.5PL3 Copyright (c) Steve Scherf et al.
# Submitted via: CDex 1.50beta8
#
DISCID=940b2d0b
DTITLE=大本友子 - Eleven Lovers Suite
DYEAR=1994
DGENRE=Folk
TTITLE0=Who Are You?
TTITLE1=きっとノスタルジア
TTITLE2=探さないで
TTITLE3=エレベーター・デート
TTITLE4=ランチタイムの恋人
TTITLE5=涙のフレンチサラダ
TTITLE6=ママはライバル
TTITLE7=覚悟を決めなさい
TTITLE8=サイレント・ジェラシー
TTITLE9=抱いててあげる
TTITLE10=Interview
EXTD=YEAR: 1994
EXTT0=
EXTT1=
EXTT2=
EXTT3=
EXTT4=
EXTT5=
EXTT6=
EXTT7=
EXTT8=
EXTT9=
EXTT10=
PLAYORDER=
